<svg xmlns="http://www.w3.org/2000/svg" xmlns:xlink="http://www.w3.org/1999/xlink" width="1300" zoomAndPan="magnify" viewBox="0 0 974.88 149.999998" height="200" preserveAspectRatio="xMidYMid meet" version="1.0"><defs><clipPath id="d099f67d85"><path d="M 0 2 L 974.761719 2 L 974.761719 149.988281 L 0 149.988281 Z M 0 2 " clip-rule="nonzero"/></clipPath><clipPath id="b34b591b8d"><path d="M -78.3125 -7.019531 L 1069.765625 163.296875 L 1045.074219 329.746094 L -103.003906 159.429688 Z M -78.3125 -7.019531 " clip-rule="nonzero"/></clipPath><clipPath id="6d373de7a3"><path d="M 999.105469 152.816406 C 1036.816406 158.410156 1061.976562 199.441406 1055.296875 244.460938 C 1048.621094 289.484375 1012.632812 321.445312 974.917969 315.851562 L -34.210938 166.148438 C -71.925781 160.554688 -97.082031 119.519531 -90.402344 74.5 C -83.726562 29.480469 -47.738281 -2.484375 -10.023438 3.113281 L 999.105469 152.816406 " clip-rule="nonzero"/></clipPath></defs><g clip-path="url(#d099f67d85)"><g clip-path="url(#b34b591b8d)"><g clip-path="url(#6d373de7a3)"><path fill="#ffffff" d="M -78.3125 -7.019531 L 1065.496094 162.664062 L 1041.4375 324.84375 L -102.371094 155.164062 Z M -78.3125 -7.019531 " fill-opacity="1" fill-rule="nonzero"/></g></g></g></svg>